<svg width="29" height="28" viewBox="0 0 29 28" fill="none" xmlns="http://www.w3.org/2000/svg">
<path d="M6.92034 3.11111C6.92034 4.76311 5.8159 6.18489 3.80768 6.18489C1.91768 6.18489 0.69812 4.844 0.69812 3.192C0.69812 1.49644 1.88034 0 3.80923 0C5.73812 0 6.88301 1.41556 6.92034 3.11111ZM0.69812 28V7.77778H6.92034V28H0.69812Z" fill="#4CAF4C"/>
<path d="M10.0312 14.6904C10.0312 12.2871 9.95186 10.2789 9.87253 8.54441H15.4632L15.7401 11.2246H15.8583C16.6454 9.96308 18.5743 8.11353 21.8036 8.11353C25.7423 8.11353 28.6979 10.7502 28.6979 16.4233V27.9997H22.4756V17.3271C22.4756 14.8475 21.5314 12.956 19.3645 12.956C17.7125 12.956 16.885 14.2937 16.451 15.3966C16.2923 15.7917 16.2534 16.3424 16.2534 16.8946V27.9997H10.0312V14.6904Z" fill="#4CAF4C"/>
</svg>
