<svg width="30" height="28" viewBox="0 0 30 28" fill="none" xmlns="http://www.w3.org/2000/svg">
<g clip-path="url(#clip0)">
<path fill-rule="evenodd" clip-rule="evenodd" d="M9.695 0.084C11.1879 0.0152727 11.6639 0 15.4668 0C19.2698 0 19.7458 0.0165454 21.2374 0.084C22.729 0.151455 23.7472 0.389455 24.6381 0.734364C25.571 1.08691 26.4174 1.638 27.1174 2.35073C27.8301 3.04945 28.3799 3.89455 28.7312 4.82873C29.0774 5.71964 29.3141 6.73782 29.3828 8.22691C29.4516 9.72236 29.4668 10.1984 29.4668 14C29.4668 17.8029 29.4503 18.2789 29.3828 19.7718C29.3154 21.2609 29.0774 22.2791 28.7312 23.17C28.3799 24.1043 27.8292 24.9508 27.1174 25.6505C26.4174 26.3633 25.571 26.9131 24.6381 27.2644C23.7472 27.6105 22.729 27.8473 21.2399 27.916C19.7458 27.9847 19.2698 28 15.4668 28C11.6639 28 11.1879 27.9835 9.695 27.916C8.20591 27.8485 7.18773 27.6105 6.29682 27.2644C5.36254 26.913 4.51605 26.3623 3.81628 25.6505C3.10403 24.9514 2.55286 24.1053 2.20119 23.1713C1.85628 22.2804 1.61955 21.2622 1.55083 19.7731C1.4821 18.2776 1.46683 17.8016 1.46683 14C1.46683 10.1971 1.48337 9.72109 1.55083 8.22945C1.61828 6.73782 1.85628 5.71964 2.20119 4.82873C2.55338 3.89465 3.10497 3.04858 3.81755 2.34945C4.51633 1.63737 5.36197 1.0862 6.29555 0.734364C7.18646 0.389455 8.20464 0.152727 9.69373 0.084H9.695ZM21.1241 2.604C19.6478 2.53655 19.2048 2.52255 15.4668 2.52255C11.7288 2.52255 11.2859 2.53655 9.80955 2.604C8.44391 2.66636 7.70319 2.89418 7.20937 3.08636C6.55646 3.34091 6.08937 3.64255 5.59937 4.13255C5.13488 4.58443 4.77742 5.13454 4.55319 5.74255C4.361 6.23636 4.13319 6.97709 4.07082 8.34273C4.00337 9.81909 3.98937 10.262 3.98937 14C3.98937 17.738 4.00337 18.1809 4.07082 19.6573C4.13319 21.0229 4.361 21.7636 4.55319 22.2575C4.77719 22.8645 5.13482 23.4156 5.59937 23.8675C6.05119 24.332 6.60228 24.6896 7.20937 24.9136C7.70319 25.1058 8.44391 25.3336 9.80955 25.396C11.2859 25.4635 11.7276 25.4775 15.4668 25.4775C19.2061 25.4775 19.6478 25.4635 21.1241 25.396C22.4898 25.3336 23.2305 25.1058 23.7243 24.9136C24.3772 24.6591 24.8443 24.3575 25.3343 23.8675C25.7988 23.4156 26.1565 22.8645 26.3805 22.2575C26.5727 21.7636 26.8005 21.0229 26.8628 19.6573C26.9303 18.1809 26.9443 17.738 26.9443 14C26.9443 10.262 26.9303 9.81909 26.8628 8.34273C26.8005 6.97709 26.5727 6.23636 26.3805 5.74255C26.1259 5.08964 25.8243 4.62255 25.3343 4.13255C24.8824 3.66809 24.3323 3.31063 23.7243 3.08636C23.2305 2.89418 22.4898 2.66636 21.1241 2.604ZM13.6787 18.3158C14.6773 18.7315 15.7893 18.7876 16.8248 18.4746C17.8602 18.1615 18.7548 17.4986 19.3558 16.5992C19.9568 15.6998 20.2269 14.6197 20.12 13.5432C20.0131 12.4668 19.5358 11.4609 18.7696 10.6973C18.2811 10.2092 17.6906 9.8354 17.0404 9.60291C16.3901 9.37043 15.6965 9.285 15.0093 9.35278C14.3221 9.42056 13.6585 9.63986 13.0662 9.99489C12.474 10.3499 11.9678 10.8319 11.5841 11.406C11.2005 11.9801 10.9489 12.6322 10.8475 13.3152C10.7461 13.9983 10.7974 14.6953 10.9977 15.3561C11.198 16.0169 11.5424 16.6251 12.0059 17.1369C12.4695 17.6487 13.0408 18.0513 13.6787 18.3158ZM10.3785 8.91164C11.0467 8.24342 11.84 7.71337 12.713 7.35173C13.5861 6.9901 14.5218 6.80397 15.4668 6.80397C16.4118 6.80397 17.3476 6.9901 18.2206 7.35173C19.0937 7.71337 19.887 8.24342 20.5552 8.91164C21.2234 9.57985 21.7535 10.3731 22.1151 11.2462C22.4767 12.1193 22.6629 13.055 22.6629 14C22.6629 14.945 22.4767 15.8807 22.1151 16.7538C21.7535 17.6269 21.2234 18.4202 20.5552 19.0884C19.2057 20.4379 17.3753 21.196 15.4668 21.196C13.5583 21.196 11.728 20.4379 10.3785 19.0884C9.02894 17.7388 8.27079 15.9085 8.27079 14C8.27079 12.0915 9.02894 10.2612 10.3785 8.91164ZM24.2588 7.87564C24.4244 7.71943 24.557 7.53159 24.6487 7.32324C24.7404 7.11489 24.7893 6.89025 24.7926 6.66264C24.796 6.43503 24.7536 6.20906 24.668 5.99812C24.5824 5.78718 24.4554 5.59556 24.2944 5.4346C24.1335 5.27363 23.9418 5.1466 23.7309 5.06102C23.52 4.97544 23.294 4.93306 23.0664 4.93638C22.8388 4.9397 22.6141 4.98865 22.4058 5.08034C22.1974 5.17203 22.0096 5.30459 21.8534 5.47018C21.5496 5.79222 21.3833 6.21997 21.3897 6.66264C21.3962 7.1053 21.5749 7.52803 21.888 7.84107C22.201 8.15412 22.6237 8.33284 23.0664 8.33929C23.5091 8.34574 23.9368 8.17942 24.2588 7.87564Z" fill="#4CAF4C"/>
</g>
<defs>
<clipPath id="clip0">
<rect width="29" height="28" fill="white" transform="translate(0.697784)"/>
</clipPath>
</defs>
</svg>
