<svg width="29" height="28" viewBox="0 0 29 28" fill="none" xmlns="http://www.w3.org/2000/svg">
<path fill-rule="evenodd" clip-rule="evenodd" d="M8.99722 0.084C10.4901 0.0152727 10.9661 0 14.769 0C18.572 0 19.048 0.0165454 20.5396 0.084C22.0312 0.151455 23.0494 0.389455 23.9403 0.734364C24.8732 1.08691 25.7196 1.638 26.4196 2.35073C27.1323 3.04945 27.6821 3.89455 28.0334 4.82873C28.3796 5.71964 28.6163 6.73782 28.685 8.22691C28.7538 9.72236 28.769 10.1984 28.769 14C28.769 17.8029 28.7525 18.2789 28.685 19.7718C28.6176 21.2609 28.3796 22.2791 28.0334 23.17C27.6821 24.1043 27.1314 24.9508 26.4196 25.6505C25.7196 26.3633 24.8732 26.9131 23.9403 27.2644C23.0494 27.6105 22.0312 27.8473 20.5421 27.916C19.048 27.9847 18.572 28 14.769 28C10.9661 28 10.4901 27.9835 8.99722 27.916C7.50813 27.8485 6.48995 27.6105 5.59904 27.2644C4.66476 26.913 3.81827 26.3623 3.1185 25.6505C2.40625 24.9514 1.85508 24.1053 1.50341 23.1713C1.1585 22.2804 0.92177 21.2622 0.853043 19.7731C0.784316 18.2776 0.769043 17.8016 0.769043 14C0.769043 10.1971 0.785588 9.72109 0.853043 8.22945C0.920497 6.73782 1.1585 5.71964 1.50341 4.82873C1.8556 3.89465 2.40719 3.04858 3.11977 2.34945C3.81855 1.63737 4.66419 1.0862 5.59777 0.734364C6.48868 0.389455 7.50686 0.152727 8.99595 0.084H8.99722ZM20.4263 2.604C18.95 2.53655 18.507 2.52255 14.769 2.52255C11.031 2.52255 10.5881 2.53655 9.11177 2.604C7.74613 2.66636 7.00541 2.89418 6.51159 3.08636C5.85868 3.34091 5.39159 3.64255 4.90159 4.13255C4.4371 4.58443 4.07964 5.13454 3.85541 5.74255C3.66322 6.23636 3.43541 6.97709 3.37304 8.34273C3.30559 9.81909 3.29159 10.262 3.29159 14C3.29159 17.738 3.30559 18.1809 3.37304 19.6573C3.43541 21.0229 3.66322 21.7636 3.85541 22.2575C4.07941 22.8645 4.43704 23.4156 4.90159 23.8675C5.35341 24.332 5.9045 24.6896 6.51159 24.9136C7.00541 25.1058 7.74613 25.3336 9.11177 25.396C10.5881 25.4635 11.0298 25.4775 14.769 25.4775C18.5083 25.4775 18.95 25.4635 20.4263 25.396C21.792 25.3336 22.5327 25.1058 23.0265 24.9136C23.6794 24.6591 24.1465 24.3575 24.6365 23.8675C25.101 23.4156 25.4587 22.8645 25.6827 22.2575C25.8749 21.7636 26.1027 21.0229 26.165 19.6573C26.2325 18.1809 26.2465 17.738 26.2465 14C26.2465 10.262 26.2325 9.81909 26.165 8.34273C26.1027 6.97709 25.8749 6.23636 25.6827 5.74255C25.4281 5.08964 25.1265 4.62255 24.6365 4.13255C24.1846 3.66809 23.6345 3.31063 23.0265 3.08636C22.5327 2.89418 21.792 2.66636 20.4263 2.604V2.604ZM12.9809 18.3158C13.9795 18.7315 15.0915 18.7876 16.127 18.4746C17.1624 18.1615 18.057 17.4986 18.658 16.5992C19.259 15.6998 19.5291 14.6197 19.4222 13.5432C19.3153 12.4668 18.838 11.4609 18.0718 10.6973C17.5833 10.2092 16.9928 9.8354 16.3426 9.60291C15.6923 9.37043 14.9987 9.285 14.3115 9.35278C13.6243 9.42056 12.9607 9.63986 12.3684 9.99489C11.7762 10.3499 11.27 10.8319 10.8863 11.406C10.5027 11.9801 10.2511 12.6322 10.1497 13.3152C10.0483 13.9983 10.0996 14.6953 10.2999 15.3561C10.5002 16.0169 10.8446 16.6251 11.3081 17.1369C11.7717 17.6487 12.343 18.0513 12.9809 18.3158ZM9.68068 8.91164C10.3489 8.24342 11.1422 7.71337 12.0152 7.35173C12.8883 6.9901 13.824 6.80397 14.769 6.80397C15.714 6.80397 16.6498 6.9901 17.5228 7.35173C18.3959 7.71337 19.1892 8.24342 19.8574 8.91164C20.5256 9.57985 21.0557 10.3731 21.4173 11.2462C21.7789 12.1193 21.9651 13.055 21.9651 14C21.9651 14.945 21.7789 15.8807 21.4173 16.7538C21.0557 17.6269 20.5256 18.4202 19.8574 19.0884C18.5079 20.4379 16.6775 21.196 14.769 21.196C12.8605 21.196 11.0302 20.4379 9.68068 19.0884C8.33116 17.7388 7.57301 15.9085 7.57301 14C7.57301 12.0915 8.33116 10.2612 9.68068 8.91164V8.91164ZM23.561 7.87564C23.7266 7.71943 23.8592 7.53159 23.9509 7.32324C24.0426 7.11489 24.0915 6.89025 24.0948 6.66264C24.0982 6.43503 24.0558 6.20906 23.9702 5.99812C23.8846 5.78718 23.7576 5.59556 23.5966 5.4346C23.4357 5.27363 23.244 5.1466 23.0331 5.06102C22.8222 4.97544 22.5962 4.93306 22.3686 4.93638C22.141 4.9397 21.9163 4.98865 21.708 5.08034C21.4996 5.17203 21.3118 5.30459 21.1556 5.47018C20.8518 5.79222 20.6855 6.21997 20.6919 6.66264C20.6984 7.1053 20.8771 7.52803 21.1902 7.84107C21.5032 8.15412 21.9259 8.33284 22.3686 8.33929C22.8113 8.34574 23.239 8.17942 23.561 7.87564V7.87564Z" fill="white"/>
</svg>
