<svg width="31" height="24" viewBox="0 0 31 24" fill="none" xmlns="http://www.w3.org/2000/svg">
<path d="M30.2362 6.22708V19.3846C30.2362 20.6087 29.75 21.7826 28.8844 22.6482C28.0189 23.5137 26.8449 24 25.6209 24H5.31317C4.08909 24 2.91515 23.5137 2.0496 22.6482C1.18405 21.7826 0.697784 20.6087 0.697784 19.3846V6.22708L14.9981 14.6418C15.1402 14.7256 15.3021 14.7698 15.467 14.7698C15.6319 14.7698 15.7939 14.7256 15.9359 14.6418L30.2362 6.22708ZM25.6209 5.71434e-08C26.7565 -0.000178553 27.8524 0.418351 28.6988 1.17552C29.5452 1.93269 30.0827 2.97534 30.2086 4.104L15.467 12.7754L0.725477 4.104C0.851307 2.97534 1.38884 1.93269 2.23525 1.17552C3.08166 0.418351 4.17751 -0.000178553 5.31317 5.71434e-08H25.6209Z" fill="#4CAF4C"/>
</svg>
